<svg width="42" height="42" viewBox="0 0 42 42" fill="none" xmlns="http://www.w3.org/2000/svg">
<path d="M27.7059 18.4609C27.246 17.9392 26.6864 17.5392 26.0684 17.2907C25.4504 17.0422 24.79 16.9516 24.1361 17.0256C23.4823 17.0996 22.8519 17.3362 22.2917 17.718C21.7314 18.0998 21.2558 18.6169 20.9001 19.2309C20.5444 18.6167 20.0689 18.0995 19.5086 17.7176C18.9484 17.3357 18.3179 17.099 17.664 17.025C17.0102 16.951 16.3497 17.0417 15.7317 17.2903C15.1137 17.5389 14.554 17.939 14.0943 18.4609C13.2648 19.4035 12.8003 20.6695 12.8003 21.9879C12.8003 23.3063 13.2648 24.5722 14.0943 25.5149L20.9001 33.1999L27.7077 25.5159C28.5366 24.5726 29.0004 23.3064 29.0001 21.988C28.9998 20.6696 28.5352 19.4037 27.7059 18.4609Z" fill="#10779D" stroke="#161616" stroke-width="2" stroke-miterlimit="10" stroke-linecap="round" stroke-linejoin="round"/>
<path d="M37.1001 41H4.7001C3.74532 41 2.82964 40.5786 2.15451 39.8284C1.47938 39.0783 1.1001 38.0609 1.1001 37V1H15.5001L20.0001 9H40.7001V37C40.7001 38.0609 40.3208 39.0783 39.6457 39.8284C38.9705 40.5786 38.0549 41 37.1001 41Z" stroke="#161616" stroke-width="2" stroke-miterlimit="10" stroke-linecap="round" stroke-linejoin="round"/>
</svg>
